<svg width="64" height="64" viewBox="0 0 64 64" fill="none" xmlns="http://www.w3.org/2000/svg">
<rect width="64" height="64" fill="#F18D8D"/>
<rect width="64" height="64" fill="white"/>
<path d="M44.8659 51.7057C43.7705 52.4623 43.4957 53.9634 44.2528 55.0584C45.0097 56.1533 46.5115 56.4279 47.6075 55.6712C48.7028 54.9146 48.9769 53.4134 48.2199 52.3185C47.4629 51.2229 45.9612 50.9489 44.8659 51.7057ZM30.7914 55.916C30.1155 56.3828 29.946 57.309 30.4129 57.9846C30.8799 58.6603 31.8064 58.8298 32.4823 58.363C33.1582 57.8955 33.3278 56.9694 32.8608 56.2936C32.3939 55.618 31.4673 55.4492 30.7914 55.916ZM13.694 49.0051C13.8182 49.583 14.3882 49.9504 14.9655 49.8255C15.5435 49.7005 15.911 49.1315 15.7861 48.5538C15.6611 47.9759 15.0919 47.6093 14.5139 47.7334C13.9367 47.8584 13.569 48.4274 13.694 49.0051ZM9.57564 32.4523C10.2947 31.4042 10.028 29.9718 8.97937 29.253C7.93081 28.5342 6.49788 28.8008 5.77886 29.849C5.05985 30.8972 5.32649 32.3297 6.37514 33.0484C7.4237 33.7672 8.85663 33.5005 9.57564 32.4523ZM17.4441 17.611C18.2383 17.0624 18.4372 15.974 17.8884 15.1801C17.3395 14.386 16.2508 14.1874 15.4565 14.7359C14.663 15.2845 14.4635 16.3729 15.0122 17.1669C15.561 17.9602 16.6498 18.1596 17.4441 17.611ZM22.6541 6.89231C22.5116 6.23195 21.8605 5.81196 21.2 5.95442C20.5387 6.09688 20.1185 6.74764 20.2618 7.40869C20.4042 8.06905 21.0553 8.48904 21.7159 8.34666C22.3772 8.2042 22.7973 7.55259 22.6541 6.89231ZM38.2535 8.50884C37.6039 7.42773 36.201 7.0771 35.1202 7.7265C34.0387 8.37514 33.6887 9.77764 34.3376 10.8587C34.9873 11.9397 36.3903 12.2896 37.4709 11.641C38.5524 10.9916 38.9024 9.58919 38.2535 8.50884ZM49.4606 24.8308C49.6338 22.5656 49.0682 20.2311 47.6755 18.2165C44.9608 14.2896 40.0044 12.8491 35.7165 14.4036C31.8854 11.95 26.8178 11.847 22.8406 14.5942C20.8274 15.985 19.393 17.8973 18.5848 20.0229C17.4142 20.1815 16.2596 20.573 15.2206 21.291C11.7862 23.6636 10.8801 28.2888 13.0591 31.7957C10.1019 34.5034 9.4201 39.0119 11.6671 42.4946C12.9999 44.5596 15.0934 45.8036 17.3418 46.1731C17.3835 47.8583 17.8892 49.5507 18.9195 51.041C21.7371 55.1177 27.3279 56.1388 31.4053 53.3221C31.561 53.2141 31.6815 53.0775 31.8284 52.962C34.101 54.9898 37.5128 55.3243 40.1295 53.5165C41.5259 52.5523 42.4188 51.149 42.8083 49.6246C44.8557 49.6998 46.9405 49.1797 48.7556 47.9255C53.1101 44.9176 54.2784 39.0359 51.4929 34.5984C53.7289 32.7131 54.2105 29.4159 52.4926 26.9821C51.7266 25.8958 50.6429 25.1829 49.4606 24.8308ZM54.3813 23.4319C55.2654 22.8213 55.4869 21.6102 54.8759 20.7264C54.265 19.8426 53.0536 19.6212 52.1693 20.2319C51.2851 20.8425 51.0637 22.0536 51.6746 22.9375C52.2856 23.8213 53.4971 24.0427 54.3813 23.4319ZM58.1474 34.811C57.9786 34.0295 57.2085 33.5335 56.4273 33.7014C55.6462 33.8701 55.1492 34.6401 55.3181 35.4209C55.4862 36.2024 56.2563 36.6984 57.0382 36.5304C57.8193 36.3617 58.3163 35.5919 58.1474 34.811ZM60.6005 27.8359C60.4747 27.2552 59.9026 26.8856 59.3217 27.0112C58.74 27.1368 58.3709 27.7088 58.4959 28.2902C58.6216 28.8709 59.1946 29.2398 59.7755 29.1149C60.3564 28.9893 60.7262 28.4166 60.6005 27.8359Z" fill="#FF1154"/>
<path d="M44.2434 42.201C43.911 40.0783 39.9797 41.7152 39.737 39.3895C39.3936 36.0894 44.3018 28.977 43.9145 26.2158C43.5667 23.7301 41.8912 23.2093 40.4334 23.1837C39.0172 23.1581 38.6431 23.3839 38.1645 23.6622C37.8883 23.8221 37.4915 24.1392 36.9406 23.6154C36.5745 23.267 36.3327 23.023 35.9454 22.7141C35.7481 22.5562 35.4339 22.3576 34.9077 22.2801C34.3809 22.2027 33.6991 22.2802 33.2659 22.4657C32.8319 22.6519 32.4913 22.977 32.1347 23.2867C31.7788 23.5965 30.8749 24.6081 30.0324 24.2348C29.6671 24.0735 28.4299 23.4554 27.537 23.069C25.8132 22.3232 23.3272 23.5314 22.4322 25.1224C21.1001 27.489 18.4702 36.7877 18.0719 38.0142C17.179 40.768 19.2038 43.0127 21.9345 42.8834C23.0891 42.8286 23.857 42.407 24.5863 41.0813C25.0079 40.3158 28.967 29.9777 29.2614 29.4817C29.4749 29.1223 30.1873 28.6475 30.7916 28.9572C31.3952 29.267 31.5157 29.9126 31.4266 30.5212C31.2819 31.505 28.4898 37.8118 28.3825 38.5254C28.2005 39.7386 28.777 40.4137 30.0368 40.4793C30.9005 40.5254 31.7605 40.215 32.4438 38.9271C32.8259 38.2068 37.2292 29.391 37.6187 28.8023C38.0469 28.1565 38.3912 27.944 38.8274 27.9666C39.1656 27.9835 39.7073 28.0703 39.572 29.0842C39.4391 30.0784 35.8987 36.5473 35.5275 38.1315C35.0306 40.2491 36.1932 42.3939 38.1084 43.3325C39.3301 43.9308 44.6746 44.9563 44.2434 42.201Z" fill="white"/>
</svg>
